<svg xmlns="http://www.w3.org/2000/svg" xmlns:xlink="http://www.w3.org/1999/xlink" viewBox="0 0 421 590"><defs><style>.cls-1{fill:url(#linear-gradient);}.cls-2{fill:url(#linear-gradient-2);}.cls-3{fill:url(#linear-gradient-3);}.cls-4{fill:url(#linear-gradient-4);}.cls-5{fill:url(#linear-gradient-5);}.cls-6{fill:url(#linear-gradient-6);}</style><linearGradient id="linear-gradient" x1="36.63" y1="78.94" x2="38.05" y2="484.25" gradientUnits="userSpaceOnUse"><stop offset="0" stop-color="#fff"/><stop offset="0.6" stop-color="#00909a"/></linearGradient><linearGradient id="linear-gradient-2" x1="112.67" y1="134.19" x2="113.94" y2="495.68" xlink:href="#linear-gradient"/><linearGradient id="linear-gradient-3" x1="164.82" y1="34.55" x2="166.35" y2="475.06" xlink:href="#linear-gradient"/><linearGradient id="linear-gradient-4" x1="237.71" y1="189.44" x2="238.82" y2="507.11" xlink:href="#linear-gradient"/><linearGradient id="linear-gradient-5" x1="307.63" y1="78.94" x2="309.05" y2="484.25" xlink:href="#linear-gradient"/><linearGradient id="linear-gradient-6" x1="383.63" y1="78.94" x2="385.05" y2="484.25" xlink:href="#linear-gradient"/></defs><g id="Layer_2" data-name="Layer 2"><g id="Layer_1-2" data-name="Layer 1"><path class="cls-1" d="M53.19,124.2A20.81,20.81,0,0,0,74,103.39V89.19H59.8A20.82,20.82,0,0,0,39,110V92.69l8.29-4.81a20.8,20.8,0,0,0,7.57-28.44L47.74,47.15,35.52,54.24a20.8,20.8,0,0,0-7.44,28.47L35,95h0v15A20.82,20.82,0,0,0,14.2,89.19H0v14.2A20.81,20.81,0,0,0,20.81,124.2H35V145A20.82,20.82,0,0,0,14.2,124.2H0v14.2a20.82,20.82,0,0,0,20.81,20.82H35V180A20.81,20.81,0,0,0,14.2,159.22H0v14.19a20.82,20.82,0,0,0,20.81,20.82H35V215A20.81,20.81,0,0,0,14.2,194.23H0v14.19a20.82,20.82,0,0,0,20.81,20.82H35v20.81A20.81,20.81,0,0,0,14.2,229.24H0v14.19a20.82,20.82,0,0,0,20.81,20.82H35v20.81A20.81,20.81,0,0,0,14.2,264.25H0v14.19a20.82,20.82,0,0,0,20.81,20.82H35V590h4V299.26h14.2A20.82,20.82,0,0,0,74,278.44V264.25H59.8A20.81,20.81,0,0,0,39,285.06V264.25h14.2A20.82,20.82,0,0,0,74,243.43V229.24H59.8A20.81,20.81,0,0,0,39,250.05V229.24h14.2A20.82,20.82,0,0,0,74,208.42V194.23H59.8A20.81,20.81,0,0,0,39,215V194.23h14.2A20.82,20.82,0,0,0,74,173.41V159.22H59.8A20.81,20.81,0,0,0,39,180V159.22h14.2A20.82,20.82,0,0,0,74,138.4V124.2H59.8A20.82,20.82,0,0,0,39,145V124.2Z"/><path class="cls-2" d="M127.44,174.56A18.56,18.56,0,0,0,146,156V143.33H133.34a18.58,18.58,0,0,0-18.57,18.57V146.45l7.4-4.29a18.55,18.55,0,0,0,6.75-25.37l-6.34-11-10.9,6.32a18.54,18.54,0,0,0-6.63,25.39l6.17,11h0V161.9a18.58,18.58,0,0,0-18.57-18.57H80V156a18.56,18.56,0,0,0,18.56,18.56h12.67v18.56a18.57,18.57,0,0,0-18.57-18.56H80v12.66a18.56,18.56,0,0,0,18.56,18.57h12.67v18.56a18.57,18.57,0,0,0-18.57-18.56H80v12.66A18.56,18.56,0,0,0,98.56,237h12.67v18.57A18.57,18.57,0,0,0,92.66,237H80v12.66a18.56,18.56,0,0,0,18.56,18.57h12.67V286.8a18.57,18.57,0,0,0-18.57-18.56H80V280.9a18.56,18.56,0,0,0,18.56,18.56h12.67V318a18.57,18.57,0,0,0-18.57-18.57H80v12.67a18.56,18.56,0,0,0,18.56,18.56h12.67V590h3.54V330.69h12.67A18.56,18.56,0,0,0,146,312.13V299.46H133.34A18.57,18.57,0,0,0,114.77,318V299.46h12.67A18.56,18.56,0,0,0,146,280.9V268.24H133.34a18.57,18.57,0,0,0-18.57,18.56V268.24h12.67A18.56,18.56,0,0,0,146,249.67V237H133.34a18.57,18.57,0,0,0-18.57,18.57V237h12.67A18.56,18.56,0,0,0,146,218.45V205.79H133.34a18.57,18.57,0,0,0-18.57,18.56V205.79h12.67A18.56,18.56,0,0,0,146,187.22V174.56H133.34a18.57,18.57,0,0,0-18.57,18.56V174.56Z"/><path class="cls-3" d="M182.81,83.74a22.62,22.62,0,0,0,22.62-22.62V45.69H190a22.62,22.62,0,0,0-22.62,22.62V49.49l9-5.22a22.63,22.63,0,0,0,8.23-30.92L176.88,0,163.6,7.7a22.61,22.61,0,0,0-8.08,30.94L163,52h0V68.31a22.62,22.62,0,0,0-22.62-22.62H125V61.12a22.62,22.62,0,0,0,22.62,22.62h15.43v22.63a22.63,22.63,0,0,0-22.62-22.63H125V99.17a22.63,22.63,0,0,0,22.62,22.63h15.43v22.62a22.62,22.62,0,0,0-22.62-22.62H125v15.43a22.62,22.62,0,0,0,22.62,22.62h15.43v22.62a22.62,22.62,0,0,0-22.62-22.62H125v15.43a22.62,22.62,0,0,0,22.62,22.62h15.43v22.62a22.62,22.62,0,0,0-22.62-22.62H125v15.43A22.62,22.62,0,0,0,147.62,236h15.43v22.62A22.62,22.62,0,0,0,140.43,236H125v15.43A22.62,22.62,0,0,0,147.62,274h15.43V590h4.33V274h15.43a22.62,22.62,0,0,0,22.62-22.62V236H190a22.62,22.62,0,0,0-22.62,22.62V236h15.43a22.62,22.62,0,0,0,22.62-22.62V197.9H190a22.62,22.62,0,0,0-22.62,22.62V197.9h15.43a22.62,22.62,0,0,0,22.62-22.62V159.85H190a22.62,22.62,0,0,0-22.62,22.62V159.85h15.43a22.62,22.62,0,0,0,22.62-22.62V121.8H190a22.61,22.61,0,0,0-22.62,22.62V121.8h15.43a22.63,22.63,0,0,0,22.62-22.63V83.74H190a22.62,22.62,0,0,0-22.62,22.63V83.74Z"/><path class="cls-4" d="M250.69,224.92A16.32,16.32,0,0,0,267,208.6V197.48H255.87a16.31,16.31,0,0,0-16.31,16.31V200.21l6.5-3.76a16.31,16.31,0,0,0,5.93-22.3l-5.58-9.62-9.57,5.55A16.3,16.3,0,0,0,231,192.39l5.42,9.64h0v11.77a16.31,16.31,0,0,0-16.31-16.31H209V208.6a16.32,16.32,0,0,0,16.31,16.32h11.13v16.31a16.31,16.31,0,0,0-16.31-16.31H209V236a16.32,16.32,0,0,0,16.31,16.32h11.13v16.31a16.31,16.31,0,0,0-16.31-16.31H209v11.13a16.31,16.31,0,0,0,16.31,16.31h11.13v16.31a16.31,16.31,0,0,0-16.31-16.31H209v11.13a16.31,16.31,0,0,0,16.31,16.31h11.13v16.31a16.31,16.31,0,0,0-16.31-16.31H209v11.13a16.31,16.31,0,0,0,16.31,16.31h11.13V351a16.31,16.31,0,0,0-16.31-16.31H209v11.13a16.31,16.31,0,0,0,16.31,16.31h11.13V590h3.12V362.12h11.13A16.31,16.31,0,0,0,267,345.81V334.68H255.87A16.31,16.31,0,0,0,239.56,351V334.68h11.13A16.31,16.31,0,0,0,267,318.37V307.24H255.87a16.31,16.31,0,0,0-16.31,16.31V307.24h11.13A16.31,16.31,0,0,0,267,290.93V279.8H255.87a16.31,16.31,0,0,0-16.31,16.31V279.8h11.13A16.31,16.31,0,0,0,267,263.49V252.36H255.87a16.31,16.31,0,0,0-16.31,16.31V252.36h11.13A16.32,16.32,0,0,0,267,236V224.92H255.87a16.31,16.31,0,0,0-16.31,16.31V224.92Z"/><path class="cls-5" d="M324.19,124.2A20.81,20.81,0,0,0,345,103.39V89.19H330.8A20.82,20.82,0,0,0,310,110V92.69l8.29-4.81a20.8,20.8,0,0,0,7.57-28.44l-7.11-12.29-12.22,7.09a20.8,20.8,0,0,0-7.44,28.47L306,95h0v15A20.82,20.82,0,0,0,285.2,89.19H271v14.2a20.81,20.81,0,0,0,20.81,20.81H306V145A20.82,20.82,0,0,0,285.2,124.2H271v14.2a20.82,20.82,0,0,0,20.81,20.82H306V180a20.81,20.81,0,0,0-20.81-20.81H271v14.19a20.82,20.82,0,0,0,20.81,20.82H306V215a20.81,20.81,0,0,0-20.81-20.81H271v14.19a20.82,20.82,0,0,0,20.81,20.82H306v20.81a20.81,20.81,0,0,0-20.81-20.81H271v14.19a20.82,20.82,0,0,0,20.81,20.82H306v20.81a20.81,20.81,0,0,0-20.81-20.81H271v14.19a20.82,20.82,0,0,0,20.81,20.82H306V590h4V299.26h14.2A20.82,20.82,0,0,0,345,278.44V264.25H330.8A20.81,20.81,0,0,0,310,285.06V264.25h14.2A20.82,20.82,0,0,0,345,243.43V229.24H330.8A20.81,20.81,0,0,0,310,250.05V229.24h14.2A20.82,20.82,0,0,0,345,208.42V194.23H330.8A20.81,20.81,0,0,0,310,215V194.23h14.2A20.82,20.82,0,0,0,345,173.41V159.22H330.8A20.81,20.81,0,0,0,310,180V159.22h14.2A20.82,20.82,0,0,0,345,138.4V124.2H330.8A20.82,20.82,0,0,0,310,145V124.2Z"/><path class="cls-6" d="M400.19,124.2A20.81,20.81,0,0,0,421,103.39V89.19H406.8A20.82,20.82,0,0,0,386,110V92.69l8.29-4.81a20.8,20.8,0,0,0,7.57-28.44l-7.11-12.29-12.22,7.09a20.8,20.8,0,0,0-7.44,28.47L382,95h0v15A20.82,20.82,0,0,0,361.2,89.19H347v14.2a20.81,20.81,0,0,0,20.81,20.81H382V145A20.82,20.82,0,0,0,361.2,124.2H347v14.2a20.82,20.82,0,0,0,20.81,20.82H382V180a20.81,20.81,0,0,0-20.81-20.81H347v14.19a20.82,20.82,0,0,0,20.81,20.82H382V215a20.81,20.81,0,0,0-20.81-20.81H347v14.19a20.82,20.82,0,0,0,20.81,20.82H382v20.81a20.81,20.81,0,0,0-20.81-20.81H347v14.19a20.82,20.82,0,0,0,20.81,20.82H382v20.81a20.81,20.81,0,0,0-20.81-20.81H347v14.19a20.82,20.82,0,0,0,20.81,20.82H382V590h4V299.26h14.2A20.82,20.82,0,0,0,421,278.44V264.25H406.8A20.81,20.81,0,0,0,386,285.06V264.25h14.2A20.82,20.82,0,0,0,421,243.43V229.24H406.8A20.81,20.81,0,0,0,386,250.05V229.24h14.2A20.82,20.82,0,0,0,421,208.42V194.23H406.8A20.81,20.81,0,0,0,386,215V194.23h14.2A20.82,20.82,0,0,0,421,173.41V159.22H406.8A20.81,20.81,0,0,0,386,180V159.22h14.2A20.82,20.82,0,0,0,421,138.4V124.2H406.8A20.82,20.82,0,0,0,386,145V124.2Z"/></g></g></svg>